<?xml version="1.0" encoding="utf-8"?>
<!-- Generator: Adobe Illustrator 23.0.0, SVG Export Plug-In . SVG Version: 6.00 Build 0)  -->
<svg version="1.1" xmlns="http://www.w3.org/2000/svg" xmlns:xlink="http://www.w3.org/1999/xlink" x="0px" y="0px"
	 viewBox="0 0 1024 1024" style="enable-background:new 0 0 1024 1024;" xml:space="preserve">
<style type="text/css">
	.st0{display:none;}
	.st1{display:inline;}
	.st2{fill:#FC564F;}
	.st3{fill:none;stroke:#211915;}
	.st4{display:inline;fill:url(#SVGID_1_);}
	.st5{opacity:0.3;fill:url(#SVGID_2_);}
	.st6{fill:none;stroke:url(#SVGID_3_);stroke-width:38;stroke-miterlimit:10;}
	.st7{opacity:0.7;}
	.st8{fill:url(#SVGID_4_);}
	.st9{fill:url(#SVGID_5_);}
	.st10{display:inline;fill:url(#SVGID_6_);}
	
		.st11{display:inline;fill:#FFFFFF;fill-opacity:0.7;stroke:#FFFFFF;stroke-width:38.0483;stroke-linecap:round;stroke-linejoin:round;stroke-miterlimit:10;}
	.st12{fill-opacity:0.7;stroke:#000000;stroke-width:38.0483;stroke-linecap:round;stroke-linejoin:round;stroke-miterlimit:10;}
	.st13{display:inline;fill:url(#SVGID_7_);}
	.st14{display:inline;fill:url(#SVGID_8_);}
	.st15{display:inline;fill:url(#SVGID_9_);}
	.st16{display:inline;fill:url(#SVGID_10_);}
	.st17{display:inline;fill:url(#SVGID_11_);}
	.st18{display:inline;fill:url(#SVGID_12_);}
	.st19{display:inline;fill:url(#SVGID_13_);}
	.st20{display:inline;fill:url(#SVGID_14_);}
	.st21{display:inline;fill:url(#SVGID_15_);}
	.st22{display:inline;fill:#FC564F;}
	
		.st23{display:inline;fill:#FFFFFF;fill-opacity:0.8;stroke:#FFFFFF;stroke-width:38.0483;stroke-linecap:round;stroke-linejoin:round;stroke-miterlimit:10;}
	.st24{display:inline;fill:#FFFFFF;}
	
		.st25{fill:#FC564F;fill-opacity:0.8;stroke:#FC564F;stroke-width:38.0215;stroke-linecap:round;stroke-linejoin:round;stroke-miterlimit:10;}
	.st26{opacity:0.3;fill:url(#SVGID_16_);}
	.st27{fill:none;stroke:url(#SVGID_17_);stroke-width:38;stroke-miterlimit:10;}
	.st28{display:inline;opacity:0.7;}
	.st29{fill:url(#SVGID_18_);}
	.st30{fill:url(#SVGID_19_);}
	
		.st31{display:inline;fill-opacity:0.7;stroke:#000000;stroke-width:38.0483;stroke-linecap:round;stroke-linejoin:round;stroke-miterlimit:10;}
	.st32{opacity:0.3;fill:url(#SVGID_20_);}
	.st33{fill:none;stroke:url(#SVGID_21_);stroke-width:38;stroke-miterlimit:10;}
	.st34{fill:url(#SVGID_22_);}
	.st35{fill:url(#SVGID_23_);}
	
		.st36{fill:#FFFFFF;fill-opacity:0.7;stroke:#FFFFFF;stroke-width:38.0483;stroke-linecap:round;stroke-linejoin:round;stroke-miterlimit:10;}
	.st37{display:inline;fill:#1A1815;}
	
		.st38{display:inline;fill:#F8F6F4;fill-opacity:0.7;stroke:#F8F6F4;stroke-width:38.048;stroke-linecap:round;stroke-linejoin:round;stroke-miterlimit:10;}
	.st39{fill:#F8F6F4;}
	
		.st40{display:inline;fill:#1A1815;fill-opacity:0.7;stroke:#1A1815;stroke-width:38.0483;stroke-linecap:round;stroke-linejoin:round;stroke-miterlimit:10;}
	.st41{display:inline;fill:#F8F6F4;}
	
		.st42{fill:#F5F6F8;fill-opacity:0.7;stroke:#F5F6F8;stroke-width:58.2347;stroke-linecap:round;stroke-linejoin:round;stroke-miterlimit:10;}
	.st43{fill:#16171A;}
</style>
<g id="Capa_5" class="st0">
	<g class="st1">
		<rect class="st2" width="1024" height="1024"/>
		<rect class="st3" width="1024" height="1024"/>
	</g>
	<linearGradient id="SVGID_1_" gradientUnits="userSpaceOnUse" x1="512.5" y1="1024" x2="512.5" y2="1">
		<stop  offset="0" style="stop-color:#9945FF"/>
		<stop  offset="1" style="stop-color:#19FA9A"/>
	</linearGradient>
	<rect x="1" y="1" class="st4" width="1023" height="1023"/>
	<g class="st1">
		<g>
			<g>
				<linearGradient id="SVGID_2_" gradientUnits="userSpaceOnUse" x1="268.414" y1="773.1965" x2="758.1135" y2="283.497">
					<stop  offset="0" style="stop-color:#DC1FFF"/>
					<stop  offset="0.35" style="stop-color:#9945FF"/>
					<stop  offset="1" style="stop-color:#00FFA3"/>
				</linearGradient>
				<path class="st5" d="M764.9,314L764.9,314l-469.6,0.1l0-0.1c-31.7,0-57.4,25.7-57.4,57.4l-0.1,0v274.8l0.1,0
					c0,15.2-6,29.8-16.8,40.6l0,0l-17.7,17.7l0,0c-0.7,0.7-1,1.9-0.6,2.8c0.4,1,1.4,1.6,2.4,1.6l559.6,0.1
					c31.7,0,57.4-25.7,57.4-57.4V371.5v0C822.3,339.7,796.6,314,764.9,314z"/>
				<linearGradient id="SVGID_3_" gradientUnits="userSpaceOnUse" x1="254.979" y1="786.6315" x2="771.5485" y2="270.062">
					<stop  offset="0" style="stop-color:#DC1FFF"/>
					<stop  offset="0.35" style="stop-color:#9945FF"/>
					<stop  offset="1" style="stop-color:#00FFA3"/>
				</linearGradient>
				<path class="st6" d="M764.9,314L764.9,314l-469.6,0.1l0-0.1c-31.7,0-57.4,25.7-57.4,57.4l-0.1,0v274.8l0.1,0
					c0,15.2-6,29.8-16.8,40.6l0,0l-17.7,17.7l0,0c-0.7,0.7-1,1.9-0.6,2.8c0.4,1,1.4,1.6,2.4,1.6l559.6,0.1
					c31.7,0,57.4-25.7,57.4-57.4V371.5v0C822.3,339.7,796.6,314,764.9,314z"/>
			</g>
		</g>
		<g class="st7">
			<g>
				<linearGradient id="SVGID_4_" gradientUnits="userSpaceOnUse" x1="268.414" y1="773.1965" x2="758.1135" y2="283.497">
					<stop  offset="0" style="stop-color:#DC1FFF"/>
					<stop  offset="0.35" style="stop-color:#9945FF"/>
					<stop  offset="1" style="stop-color:#00FFA3"/>
				</linearGradient>
				<path class="st8" d="M764.9,314L764.9,314l-469.6,0.1l0-0.1c-31.7,0-57.4,25.7-57.4,57.4l-0.1,0v274.8l0.1,0
					c0,15.2-6,29.8-16.8,40.6l0,0l-17.7,17.7l0,0c-0.7,0.7-1,1.9-0.6,2.8c0.4,1,1.4,1.6,2.4,1.6l559.6,0.1
					c31.7,0,57.4-25.7,57.4-57.4V371.5v0C822.3,339.7,796.6,314,764.9,314z"/>
				<linearGradient id="SVGID_5_" gradientUnits="userSpaceOnUse" x1="268.414" y1="773.1965" x2="758.1135" y2="283.497">
					<stop  offset="0" style="stop-color:#DC1FFF"/>
					<stop  offset="0.35" style="stop-color:#9945FF"/>
					<stop  offset="1" style="stop-color:#00FFA3"/>
				</linearGradient>
				<path class="st9" d="M764.9,314L764.9,314l-469.6,0.1l0-0.1c-31.7,0-57.4,25.7-57.4,57.4l-0.1,0v274.8l0.1,0
					c0,15.2-6,29.8-16.8,40.6l0,0l-17.7,17.7l0,0c-0.7,0.7-1,1.9-0.6,2.8c0.4,1,1.4,1.6,2.4,1.6l559.6,0.1
					c31.7,0,57.4-25.7,57.4-57.4V371.5v0C822.3,339.7,796.6,314,764.9,314z"/>
			</g>
		</g>
	</g>
</g>
<g id="Capa_4" class="st0">
	
		<image style="display:inline;overflow:visible;" width="225" height="225" xlink:href="1D185460.jpg"  transform="matrix(3.4 0 0 3.4 1024 -587)">
	</image>
</g>
<g id="Capa_7" class="st0">
	<linearGradient id="SVGID_6_" gradientUnits="userSpaceOnUse" x1="0" y1="1024" x2="1024" y2="-6.821210e-13">
		<stop  offset="0" style="stop-color:#DC1FFF"/>
		<stop  offset="0.35" style="stop-color:#9945FF"/>
		<stop  offset="1" style="stop-color:#00FFA3"/>
	</linearGradient>
	<rect class="st10" width="1024" height="1024"/>
	<path class="st11" d="M203.6,708.9c-1.1,0-2-0.6-2.4-1.6c-0.4-1-0.2-2.1,0.6-2.8l0,0l17.8-17.7l0,0c10.8-10.8,16.8-25.4,16.8-40.6
		l-0.1,0v-275l0.1,0c0-31.7,25.7-57.4,57.4-57.4l0,0.1h469.8l0-0.1c31.7,0,57.4,25.7,57.4,57.4v0v280.3v0
		c0,31.7-25.7,57.4-57.4,57.4L203.6,708.9z"/>
	<path class="st12" d="M203.6,708.9c-1.1,0-2-0.6-2.4-1.6c-0.4-1-0.2-2.1,0.6-2.8l0,0l17.8-17.7l0,0c10.8-10.8,16.8-25.4,16.8-40.6
		l-0.1,0v-275l0.1,0c0-31.7,25.7-57.4,57.4-57.4l0,0.1h469.8l0-0.1c31.7,0,57.4,25.7,57.4,57.4v0v280.3v0
		c0,31.7-25.7,57.4-57.4,57.4L203.6,708.9z"/>
	<linearGradient id="SVGID_7_" gradientUnits="userSpaceOnUse" x1="-45.7832" y1="977.2168" x2="978.2168" y2="-46.7832">
		<stop  offset="0" style="stop-color:#DC1FFF"/>
		<stop  offset="0.35" style="stop-color:#9945FF"/>
		<stop  offset="1" style="stop-color:#00FFA3"/>
	</linearGradient>
	<circle class="st13" cx="419.4" cy="512.1" r="54"/>
	<linearGradient id="SVGID_8_" gradientUnits="userSpaceOnUse" x1="36.6104" y1="1060.6104" x2="1060.6104" y2="36.6104">
		<stop  offset="0" style="stop-color:#DC1FFF"/>
		<stop  offset="0.35" style="stop-color:#9945FF"/>
		<stop  offset="1" style="stop-color:#00FFA3"/>
	</linearGradient>
	<circle class="st14" cx="639.9" cy="457.3" r="12.2"/>
	<linearGradient id="SVGID_9_" gradientUnits="userSpaceOnUse" x1="25.4277" y1="1049.4277" x2="1049.4277" y2="25.4277">
		<stop  offset="0" style="stop-color:#DC1FFF"/>
		<stop  offset="0.35" style="stop-color:#9945FF"/>
		<stop  offset="1" style="stop-color:#00FFA3"/>
	</linearGradient>
	<circle class="st15" cx="601.7" cy="473.1" r="12.2"/>
	<linearGradient id="SVGID_10_" gradientUnits="userSpaceOnUse" x1="36.6104" y1="1060.6104" x2="1060.6104" y2="36.6104">
		<stop  offset="0" style="stop-color:#DC1FFF"/>
		<stop  offset="0.35" style="stop-color:#9945FF"/>
		<stop  offset="1" style="stop-color:#00FFA3"/>
	</linearGradient>
	<circle class="st16" cx="585.9" cy="511.3" r="12.2"/>
	<linearGradient id="SVGID_11_" gradientUnits="userSpaceOnUse" x1="63.6078" y1="1087.6079" x2="1087.6078" y2="63.6078">
		<stop  offset="0" style="stop-color:#DC1FFF"/>
		<stop  offset="0.35" style="stop-color:#9945FF"/>
		<stop  offset="1" style="stop-color:#00FFA3"/>
	</linearGradient>
	<circle class="st17" cx="601.7" cy="549.5" r="12.2"/>
	<linearGradient id="SVGID_12_" gradientUnits="userSpaceOnUse" x1="90.6053" y1="1114.6053" x2="1114.6053" y2="90.6053">
		<stop  offset="0" style="stop-color:#DC1FFF"/>
		<stop  offset="0.35" style="stop-color:#9945FF"/>
		<stop  offset="1" style="stop-color:#00FFA3"/>
	</linearGradient>
	<circle class="st18" cx="639.9" cy="565.3" r="12.2"/>
	<linearGradient id="SVGID_13_" gradientUnits="userSpaceOnUse" x1="101.788" y1="1125.788" x2="1125.788" y2="101.788">
		<stop  offset="0" style="stop-color:#DC1FFF"/>
		<stop  offset="0.35" style="stop-color:#9945FF"/>
		<stop  offset="1" style="stop-color:#00FFA3"/>
	</linearGradient>
	<circle class="st19" cx="678.1" cy="549.5" r="12.2"/>
	<linearGradient id="SVGID_14_" gradientUnits="userSpaceOnUse" x1="90.6053" y1="1114.6053" x2="1114.6053" y2="90.6053">
		<stop  offset="0" style="stop-color:#DC1FFF"/>
		<stop  offset="0.35" style="stop-color:#9945FF"/>
		<stop  offset="1" style="stop-color:#00FFA3"/>
	</linearGradient>
	<circle class="st20" cx="693.9" cy="511.3" r="12.2"/>
	<linearGradient id="SVGID_15_" gradientUnits="userSpaceOnUse" x1="63.6078" y1="1087.6078" x2="1087.6078" y2="63.6078">
		<stop  offset="0" style="stop-color:#DC1FFF"/>
		<stop  offset="0.35" style="stop-color:#9945FF"/>
		<stop  offset="1" style="stop-color:#00FFA3"/>
	</linearGradient>
	<circle class="st21" cx="678.1" cy="473.1" r="12.2"/>
</g>
<g id="Capa_22" class="st0">
	<rect class="st22" width="1024" height="1024"/>
	<path class="st23" d="M203.6,708.9c-1.1,0-2-0.6-2.4-1.6c-0.4-1-0.2-2.1,0.6-2.8l0,0l17.8-17.7l0,0c10.8-10.8,16.8-25.4,16.8-40.6
		l-0.1,0v-275l0.1,0c0-31.7,25.7-57.4,57.4-57.4l0,0.1h469.8l0-0.1c31.7,0,57.4,25.7,57.4,57.4v0v280.3v0
		c0,31.7-25.7,57.4-57.4,57.4L203.6,708.9z"/>
	<circle class="st22" cx="417.9" cy="512" r="54"/>
	<circle class="st22" cx="638.5" cy="457.2" r="12.2"/>
	<circle class="st22" cx="600.3" cy="473" r="12.2"/>
	<circle class="st22" cx="584.5" cy="511.2" r="12.2"/>
	<circle class="st22" cx="600.3" cy="549.4" r="12.2"/>
	<circle class="st22" cx="638.5" cy="565.2" r="12.2"/>
	<circle class="st22" cx="676.7" cy="549.4" r="12.2"/>
	<circle class="st22" cx="692.6" cy="511.2" r="12.2"/>
	<circle class="st22" cx="676.7" cy="473" r="12.2"/>
</g>
<g id="Capa_23" class="st0">
	<rect class="st24" width="1024" height="1024"/>
	<g class="st1">
		<path class="st25" d="M203.6,708.9c-1.1,0-2-0.6-2.4-1.6s-0.2-2.1,0.6-2.8l0,0l17.7-17.7l0,0c10.8-10.8,16.8-25.4,16.8-40.6
			l-0.1,0V371.5l0.1,0c0-31.7,25.7-57.4,57.4-57.4l0,0.1h469.5l0-0.1c31.7,0,57.4,25.7,57.4,57.4v0v280.1v0
			c0,31.7-25.7,57.4-57.4,57.4L203.6,708.9z"/>
	</g>
	<circle class="st24" cx="417.7" cy="512.1" r="54"/>
	<circle class="st24" cx="638.2" cy="457.3" r="12.2"/>
	<circle class="st24" cx="600.1" cy="473.2" r="12.2"/>
	<circle class="st24" cx="584.2" cy="511.3" r="12.2"/>
	<circle class="st24" cx="600.1" cy="549.5" r="12.2"/>
	<circle class="st24" cx="638.2" cy="565.3" r="12.2"/>
	<circle class="st24" cx="676.4" cy="549.5" r="12.2"/>
	<circle class="st24" cx="692.2" cy="511.3" r="12.2"/>
	<circle class="st24" cx="676.4" cy="473.2" r="12.2"/>
</g>
<g id="Capa_24" class="st0">
	<rect class="st24" width="1024" height="1024"/>
	<g>
		<g class="st1">
			<g>
				<linearGradient id="SVGID_16_" gradientUnits="userSpaceOnUse" x1="267.414" y1="773.1965" x2="757.1135" y2="283.497">
					<stop  offset="0" style="stop-color:#DC1FFF"/>
					<stop  offset="0.35" style="stop-color:#9945FF"/>
					<stop  offset="1" style="stop-color:#00FFA3"/>
				</linearGradient>
				<path class="st26" d="M763.9,314L763.9,314l-469.6,0.1l0-0.1c-31.7,0-57.4,25.7-57.4,57.4l-0.1,0v274.8l0.1,0
					c0,15.2-6,29.8-16.8,40.6l0,0l-17.7,17.7l0,0c-0.7,0.7-1,1.9-0.6,2.8c0.4,1,1.4,1.6,2.4,1.6l559.6,0.1
					c31.7,0,57.4-25.7,57.4-57.4V371.5v0C821.3,339.7,795.6,314,763.9,314z"/>
				<linearGradient id="SVGID_17_" gradientUnits="userSpaceOnUse" x1="253.979" y1="786.6315" x2="770.5485" y2="270.062">
					<stop  offset="0" style="stop-color:#DC1FFF"/>
					<stop  offset="0.35" style="stop-color:#9945FF"/>
					<stop  offset="1" style="stop-color:#00FFA3"/>
				</linearGradient>
				<path class="st27" d="M763.9,314L763.9,314l-469.6,0.1l0-0.1c-31.7,0-57.4,25.7-57.4,57.4l-0.1,0v274.8l0.1,0
					c0,15.2-6,29.8-16.8,40.6l0,0l-17.7,17.7l0,0c-0.7,0.7-1,1.9-0.6,2.8c0.4,1,1.4,1.6,2.4,1.6l559.6,0.1
					c31.7,0,57.4-25.7,57.4-57.4V371.5v0C821.3,339.7,795.6,314,763.9,314z"/>
			</g>
		</g>
		<g class="st28">
			<g>
				<linearGradient id="SVGID_18_" gradientUnits="userSpaceOnUse" x1="267.414" y1="773.1965" x2="757.1135" y2="283.497">
					<stop  offset="0" style="stop-color:#DC1FFF"/>
					<stop  offset="0.35" style="stop-color:#9945FF"/>
					<stop  offset="1" style="stop-color:#00FFA3"/>
				</linearGradient>
				<path class="st29" d="M763.9,314L763.9,314l-469.6,0.1l0-0.1c-31.7,0-57.4,25.7-57.4,57.4l-0.1,0v274.8l0.1,0
					c0,15.2-6,29.8-16.8,40.6l0,0l-17.7,17.7l0,0c-0.7,0.7-1,1.9-0.6,2.8c0.4,1,1.4,1.6,2.4,1.6l559.6,0.1
					c31.7,0,57.4-25.7,57.4-57.4V371.5v0C821.3,339.7,795.6,314,763.9,314z"/>
				<linearGradient id="SVGID_19_" gradientUnits="userSpaceOnUse" x1="267.414" y1="773.1965" x2="757.1135" y2="283.497">
					<stop  offset="0" style="stop-color:#DC1FFF"/>
					<stop  offset="0.35" style="stop-color:#9945FF"/>
					<stop  offset="1" style="stop-color:#00FFA3"/>
				</linearGradient>
				<path class="st30" d="M763.9,314L763.9,314l-469.6,0.1l0-0.1c-31.7,0-57.4,25.7-57.4,57.4l-0.1,0v274.8l0.1,0
					c0,15.2-6,29.8-16.8,40.6l0,0l-17.7,17.7l0,0c-0.7,0.7-1,1.9-0.6,2.8c0.4,1,1.4,1.6,2.4,1.6l559.6,0.1
					c31.7,0,57.4-25.7,57.4-57.4V371.5v0C821.3,339.7,795.6,314,763.9,314z"/>
			</g>
		</g>
	</g>
	<path class="st31" d="M203.6,708.9c-1.1,0-2-0.6-2.4-1.6c-0.4-1-0.2-2.1,0.6-2.8l0,0l17.8-17.7l0,0c10.8-10.8,16.8-25.4,16.8-40.6
		l-0.1,0v-275l0.1,0c0-31.7,25.7-57.4,57.4-57.4l0,0.1h469.8l0-0.1c31.7,0,57.4,25.7,57.4,57.4v0v280.3v0
		c0,31.7-25.7,57.4-57.4,57.4L203.6,708.9z"/>
	<ellipse class="st24" cx="418.4" cy="512.1" rx="53.9" ry="54"/>
	<ellipse class="st24" cx="638.8" cy="457.3" rx="12.2" ry="12.2"/>
	<ellipse class="st24" cx="600.6" cy="473.1" rx="12.2" ry="12.2"/>
	<ellipse class="st24" cx="584.8" cy="511.3" rx="12.2" ry="12.2"/>
	<ellipse class="st24" cx="600.6" cy="549.5" rx="12.2" ry="12.2"/>
	<ellipse class="st24" cx="638.8" cy="565.3" rx="12.2" ry="12.2"/>
	<ellipse class="st24" cx="676.9" cy="549.5" rx="12.2" ry="12.2"/>
	<ellipse class="st24" cx="692.7" cy="511.3" rx="12.2" ry="12.2"/>
	<ellipse class="st24" cx="676.9" cy="473.1" rx="12.2" ry="12.2"/>
</g>
<g id="Capa_25" class="st0">
	<rect y="-1" class="st1" width="1024" height="1024"/>
	<g class="st1">
		<g>
			<g>
				<linearGradient id="SVGID_20_" gradientUnits="userSpaceOnUse" x1="267.414" y1="773.1965" x2="757.1135" y2="283.497">
					<stop  offset="0" style="stop-color:#DC1FFF"/>
					<stop  offset="0.35" style="stop-color:#9945FF"/>
					<stop  offset="1" style="stop-color:#00FFA3"/>
				</linearGradient>
				<path class="st32" d="M763.9,314L763.9,314l-469.6,0.1l0-0.1c-31.7,0-57.4,25.7-57.4,57.4l-0.1,0v274.8l0.1,0
					c0,15.2-6,29.8-16.8,40.6l0,0l-17.7,17.7l0,0c-0.7,0.7-1,1.9-0.6,2.8c0.4,1,1.4,1.6,2.4,1.6l559.6,0.1
					c31.7,0,57.4-25.7,57.4-57.4V371.5v0C821.3,339.7,795.6,314,763.9,314z"/>
				<linearGradient id="SVGID_21_" gradientUnits="userSpaceOnUse" x1="253.979" y1="786.6315" x2="770.5485" y2="270.062">
					<stop  offset="0" style="stop-color:#DC1FFF"/>
					<stop  offset="0.35" style="stop-color:#9945FF"/>
					<stop  offset="1" style="stop-color:#00FFA3"/>
				</linearGradient>
				<path class="st33" d="M763.9,314L763.9,314l-469.6,0.1l0-0.1c-31.7,0-57.4,25.7-57.4,57.4l-0.1,0v274.8l0.1,0
					c0,15.2-6,29.8-16.8,40.6l0,0l-17.7,17.7l0,0c-0.7,0.7-1,1.9-0.6,2.8c0.4,1,1.4,1.6,2.4,1.6l559.6,0.1
					c31.7,0,57.4-25.7,57.4-57.4V371.5v0C821.3,339.7,795.6,314,763.9,314z"/>
			</g>
		</g>
		<g class="st7">
			<g>
				<linearGradient id="SVGID_22_" gradientUnits="userSpaceOnUse" x1="267.414" y1="773.1965" x2="757.1135" y2="283.497">
					<stop  offset="0" style="stop-color:#DC1FFF"/>
					<stop  offset="0.35" style="stop-color:#9945FF"/>
					<stop  offset="1" style="stop-color:#00FFA3"/>
				</linearGradient>
				<path class="st34" d="M763.9,314L763.9,314l-469.6,0.1l0-0.1c-31.7,0-57.4,25.7-57.4,57.4l-0.1,0v274.8l0.1,0
					c0,15.2-6,29.8-16.8,40.6l0,0l-17.7,17.7l0,0c-0.7,0.7-1,1.9-0.6,2.8c0.4,1,1.4,1.6,2.4,1.6l559.6,0.1
					c31.7,0,57.4-25.7,57.4-57.4V371.5v0C821.3,339.7,795.6,314,763.9,314z"/>
				<linearGradient id="SVGID_23_" gradientUnits="userSpaceOnUse" x1="267.414" y1="773.1965" x2="757.1135" y2="283.497">
					<stop  offset="0" style="stop-color:#DC1FFF"/>
					<stop  offset="0.35" style="stop-color:#9945FF"/>
					<stop  offset="1" style="stop-color:#00FFA3"/>
				</linearGradient>
				<path class="st35" d="M763.9,314L763.9,314l-469.6,0.1l0-0.1c-31.7,0-57.4,25.7-57.4,57.4l-0.1,0v274.8l0.1,0
					c0,15.2-6,29.8-16.8,40.6l0,0l-17.7,17.7l0,0c-0.7,0.7-1,1.9-0.6,2.8c0.4,1,1.4,1.6,2.4,1.6l559.6,0.1
					c31.7,0,57.4-25.7,57.4-57.4V371.5v0C821.3,339.7,795.6,314,763.9,314z"/>
			</g>
		</g>
	</g>
	<path class="st36" d="M203.6,709.9c-1.1,0-2-0.6-2.4-1.6c-0.4-1-0.2-2.1,0.6-2.8l0,0l17.8-17.7l0,0c10.8-10.8,16.8-25.4,16.8-40.6
		l-0.1,0v-275l0.1,0c0-31.7,25.7-57.4,57.4-57.4l0,0.1h469.8l0-0.1c31.7,0,57.4,25.7,57.4,57.4v0v280.3v0
		c0,31.7-25.7,57.4-57.4,57.4L203.6,709.9z"/>
	<circle class="st1" cx="419.4" cy="512.1" r="54"/>
	<circle class="st1" cx="639.9" cy="457.3" r="12.2"/>
	<circle class="st1" cx="601.7" cy="473.1" r="12.2"/>
	<circle class="st1" cx="585.9" cy="511.3" r="12.2"/>
	<circle class="st1" cx="601.7" cy="549.5" r="12.2"/>
	<circle class="st1" cx="639.9" cy="565.3" r="12.2"/>
	<circle class="st1" cx="678.1" cy="549.5" r="12.2"/>
	<circle class="st1" cx="693.9" cy="511.3" r="12.2"/>
	<circle class="st1" cx="678.1" cy="473.1" r="12.2"/>
</g>
<g id="web_dark" class="st0">
	<rect class="st37" width="1024" height="1024"/>
	<path class="st38" d="M203.6,708.9c-1.1,0-2-0.6-2.4-1.6c-0.4-1-0.2-2.1,0.6-2.8l0,0l17.8-17.7l0,0c10.8-10.8,16.8-25.4,16.8-40.6
		l-0.1,0v-275l0.1,0c0-31.7,25.7-57.4,57.4-57.4l0,0.1h469.8l0-0.1c31.7,0,57.4,25.7,57.4,57.4v0v280.3v0
		c0,31.7-25.7,57.4-57.4,57.4L203.6,708.9z"/>
	<ellipse class="st37" cx="418.4" cy="512.1" rx="53.9" ry="54"/>
	<ellipse class="st37" cx="638.8" cy="457.3" rx="12.2" ry="12.2"/>
	<ellipse class="st37" cx="600.6" cy="473.1" rx="12.2" ry="12.2"/>
	<ellipse class="st37" cx="584.8" cy="511.3" rx="12.2" ry="12.2"/>
	<ellipse class="st37" cx="600.6" cy="549.5" rx="12.2" ry="12.2"/>
	<ellipse class="st37" cx="638.8" cy="565.3" rx="12.2" ry="12.2"/>
	<ellipse class="st37" cx="676.9" cy="549.5" rx="12.2" ry="12.2"/>
	<ellipse class="st37" cx="692.7" cy="511.3" rx="12.2" ry="12.2"/>
	<ellipse class="st37" cx="676.9" cy="473.1" rx="12.2" ry="12.2"/>
</g>
<g id="web_light" class="st0">
	<rect y="-1" class="st39" width="1024" height="1024"/>
	<path class="st40" d="M203.6,708.9c-1.1,0-2-0.6-2.4-1.6c-0.4-1-0.2-2.1,0.6-2.8l0,0l17.8-17.7l0,0c10.8-10.8,16.8-25.4,16.8-40.6
		l-0.1,0v-275l0.1,0c0-31.7,25.7-57.4,57.4-57.4l0,0.1h469.8l0-0.1c31.7,0,57.4,25.7,57.4,57.4v0v280.3v0
		c0,31.7-25.7,57.4-57.4,57.4L203.6,708.9z"/>
	<ellipse class="st41" cx="417.6" cy="511" rx="53.9" ry="54"/>
	<ellipse class="st41" cx="638.8" cy="457.3" rx="12.2" ry="12.2"/>
	<ellipse class="st41" cx="600.6" cy="473.1" rx="12.2" ry="12.2"/>
	<ellipse class="st41" cx="584.8" cy="511.3" rx="12.2" ry="12.2"/>
	<ellipse class="st41" cx="600.6" cy="549.5" rx="12.2" ry="12.2"/>
	<ellipse class="st41" cx="638.8" cy="565.3" rx="12.2" ry="12.2"/>
	<ellipse class="st41" cx="676.9" cy="549.5" rx="12.2" ry="12.2"/>
	<ellipse class="st41" cx="692.7" cy="511.3" rx="12.2" ry="12.2"/>
	<ellipse class="st41" cx="676.9" cy="473.1" rx="12.2" ry="12.2"/>
</g>
<g id="Capa_11">
	<path class="st42" d="M42,825.9c-1.6,0-3.1-1-3.7-2.5c-0.6-1.5-0.3-3.2,0.9-4.3l-0.1,0l27.2-27.1l0,0C82.8,775.6,92,753.2,92,729.9
		l-0.1,0.1V309.1L92,309c0-48.6,39.4-87.9,87.9-87.9l-0.1,0.1H899l0.1-0.1c48.6,0,87.9,39.4,87.9,87.9v0.1v429v-0.1
		c0,48.6-39.4,87.9-87.9,87.9L42,825.9z"/>
	<ellipse class="st43" cx="369.5" cy="523" rx="82.6" ry="82.6"/>
	<ellipse class="st43" cx="708" cy="440.8" rx="18.6" ry="18.6"/>
	<ellipse class="st43" cx="649.7" cy="465" rx="18.6" ry="18.6"/>
	<ellipse class="st43" cx="625.5" cy="523.4" rx="18.6" ry="18.6"/>
	<ellipse class="st43" cx="649.7" cy="581.9" rx="18.6" ry="18.6"/>
	<ellipse class="st43" cx="708" cy="606.1" rx="18.6" ry="18.6"/>
	<ellipse class="st43" cx="766.4" cy="581.9" rx="18.6" ry="18.6"/>
	<ellipse class="st43" cx="790.6" cy="523.4" rx="18.6" ry="18.6"/>
	<ellipse class="st43" cx="766.4" cy="465" rx="18.6" ry="18.6"/>
</g>
<g id="Capa_26">
</g>
</svg>
